<svg width="20" height="20" xmlns="http://www.w3.org/2000/svg" viewBox="0 0 20 20">
  <path d="M18.94878 20.02668l-5.76696-5.78361c-.33174.29912-.69609.56566-1.0938.79783-.39772.23293-.81249.43226-1.24294.59824-.43108.16674-.88706.29148-1.36718.37397-.48087.08324-.95315.12474-1.41685.12474-1.12717 0-2.17978-.21588-3.15696-.64814-.97804-.43175-1.83173-1.0137-2.56044-1.74509-.72935-.73087-1.30109-1.587-1.71511-2.56761-.41488-.9801-.62152-2.01926-.62152-3.11621 0-1.12953.20664-2.18524.62152-3.16585.41403-.9801.98577-1.83622 1.71511-2.56786.7287-.73062 1.5824-1.30391 2.56044-1.71988C5.88127.192 6.93388-.01624 8.06105-.01624c1.0937 0 2.12924.20824 3.10718.62345.97729.41597 1.83098.98926 2.56044 1.71988.7286.73164 1.30892 1.58776 1.74 2.56786.43033.98061.64631 2.03632.64631 3.16585 0 .46587-.04195.93962-.12424 1.42102-.08315.48216-.20739.93937-.37293 1.37112-.16619.43226-.3651.84747-.59652 1.24638-.23228.39891-.49717.76499-.79544 1.09669l5.76696 5.78361zM1.39909 10.85294c.36435.86452.87783 1.62875 1.5412 2.29343.66261.6652 1.43327 1.18859 2.31174 1.57045.87783.38237 1.81468.57329 2.80902.57329.99424 0 1.92186-.19093 2.78403-.57329.86153-.38186 1.62359-.90526 2.28696-1.57045.66261-.66469 1.18468-1.42891 1.56609-2.29343.38066-.86402.57174-1.79498.57174-2.79214 0-.99716-.19108-1.93576-.57174-2.81683-.38141-.88031-.90348-1.65319-1.56609-2.31838-.66336-.66469-1.42543-1.17943-2.28696-1.54576C9.98291 1.01452 9.0553.83148 8.06105.83148c-.99435 0-1.93119.18304-2.80902.54835-.87848.36633-1.64913.88107-2.31174 1.54576-.66336.6652-1.17685 1.43807-1.5412 2.31838-.3651.88107-.54685 1.81968-.54685 2.81683 0 .99716.18175 1.92812.54685 2.79214z" fill="#fff"/>
</svg>
